<svg width="34" height="37" viewBox="0 0 34 37" fill="none" xmlns="http://www.w3.org/2000/svg">
<path fill-rule="evenodd" clip-rule="evenodd" d="M3.34282 14.2714C3.34282 6.38955 9.73235 0 17.6142 0C25.4961 0 31.8857 6.38953 31.8857 14.2714V23.4376C33.1174 23.873 34 25.0477 34 26.4286C34 27.8094 33.1174 28.9842 31.8857 29.4195V29.6H30.8285H3.34282C1.59128 29.6 0.171387 28.1801 0.171387 26.4286C0.171387 24.677 1.59128 23.2571 3.34282 23.2571L3.34282 14.2714ZM23.4285 31.7143C23.4285 34.6335 21.062 37 18.1428 37H17.0857C14.1665 37 11.8 34.6335 11.8 31.7143H23.4285Z" fill="#D9D9D9"/>
</svg>
